<svg id="Layer_1" data-name="Layer 1" xmlns="http://www.w3.org/2000/svg" viewBox="0 0 24.53 11.01"><defs><style>.cls-1{fill:#fff;}.cls-2{fill:gray;}.cls-3{fill:#404040;}.cls-4{fill:none;}</style></defs><path class="cls-1" d="M147.44,280.56a2.24,2.24,0,0,1-.26,1.08,2.9,2.9,0,0,1-.67.89,3.42,3.42,0,0,1-3.66.44,3.17,3.17,0,0,0,.68-.44l.1-.09a2.71,2.71,0,0,0,.71.09,2,2,0,1,0,0-4,2.48,2.48,0,0,0-.73.1,2.35,2.35,0,0,0-.75.35h0a1.93,1.93,0,0,0-.83,1.54,1.9,1.9,0,0,0,.83,1.52,2.34,2.34,0,0,1-.77.35,2.52,2.52,0,0,1-.59-.79,2.48,2.48,0,0,1-.25-1.08,2.64,2.64,0,0,1,.25-1.1,2.55,2.55,0,0,1,.61-.79l.08-.07a2.81,2.81,0,0,1,.67-.45,3.4,3.4,0,0,1,3.66.45,2.78,2.78,0,0,1,.67.86A2.37,2.37,0,0,1,147.44,280.56Z" transform="translate(-131.46 -274.39)"/><polygon class="cls-2" points="22.63 8.88 22.07 9.44 19.79 7.09 20.87 7.09 22.63 8.88"/><path class="cls-2" d="M153.47,278.45a1.45,1.45,0,0,0-1.07-.55h-4.17l.77.78h3.4c.36,0,.68.46.68,1s-.32,1-.68,1h-4.17v2.53H149v-1.76h3.4a1.41,1.41,0,0,0,1.07-.57,2,2,0,0,0,.38-1.22A2.07,2.07,0,0,0,153.47,278.45Z" transform="translate(-131.46 -274.39)"/><path class="cls-2" d="M131.46,274.39v7.86h.78v-6.54Z" transform="translate(-131.46 -274.39)"/><polygon class="cls-1" points="6.04 3.54 6.04 11.01 1.78 3.84 1.78 2.32 5.26 8.19 5.26 3.54 6.04 3.54"/><path class="cls-2" d="M144.47,280.56a2.24,2.24,0,0,1-.26,1.08,2.82,2.82,0,0,1-.58.8l-.1.09a3.17,3.17,0,0,1-.68.44,3.39,3.39,0,0,1-1.49.34,3.31,3.31,0,0,1-2.15-.78,2.68,2.68,0,0,1-.69-.89,2.35,2.35,0,0,1-.25-1.08,2.49,2.49,0,0,1,.25-1.1,2.57,2.57,0,0,1,.69-.86,3.17,3.17,0,0,1,2.15-.79,3.26,3.26,0,0,1,1.49.34,2.81,2.81,0,0,0-.67.45l-.08.07a2.55,2.55,0,0,0-.74-.1,2,2,0,1,0,0,4,2.46,2.46,0,0,0,.72-.1,2.34,2.34,0,0,0,.77-.35h0a1.9,1.9,0,0,0,.83-1.52,1.93,1.93,0,0,0-.83-1.54,2.35,2.35,0,0,1,.75-.35,2.67,2.67,0,0,1,.6.79A2.37,2.37,0,0,1,144.47,280.56Z" transform="translate(-131.46 -274.39)"/><path class="cls-3" d="M156,282.9a.52.52,0,0,1-.56.47.53.53,0,0,1-.56-.47.57.57,0,0,1,1.12,0Z" transform="translate(-131.46 -274.39)"/><path class="cls-3" d="M156,282.9a.52.52,0,0,1-.56.47.53.53,0,0,1-.56-.47.57.57,0,0,1,1.12,0Z" transform="translate(-131.46 -274.39)"/><path class="cls-3" d="M156,282.9a.52.52,0,0,1-.56.47.53.53,0,0,1-.56-.47.57.57,0,0,1,1.12,0Z" transform="translate(-131.46 -274.39)"/><path class="cls-1" d="M156,282.9a.52.52,0,0,1-.56.47.53.53,0,0,1-.56-.47.57.57,0,0,1,1.12,0Z" transform="translate(-131.46 -274.39)"/><path class="cls-2" d="M149,280.71Z" transform="translate(-131.46 -274.39)"/><line class="cls-4" x1="16.77" y1="7.09" x2="16.77" y2="6.32"/></svg>